<?xml version="1.0" encoding="iso-8859-1"?>
<!-- Generator: Adobe Illustrator 17.1.0, SVG Export Plug-In . SVG Version: 6.00 Build 0)  -->
<!DOCTYPE svg PUBLIC "-//W3C//DTD SVG 1.1//EN" "http://www.w3.org/Graphics/SVG/1.1/DTD/svg11.dtd">
<svg version="1.1" id="Capa_1" xmlns="http://www.w3.org/2000/svg" xmlns:xlink="http://www.w3.org/1999/xlink" x="0px" y="0px"
	 viewBox="0 0 216 216" style="enable-background:new 0 0 216 216;" xml:space="preserve">
<path d="M89.295,90.502c0,8.981-7.306,16.288-16.287,16.288H25.782c-11.463,0-20.789-9.326-20.789-20.79
	c0-11.463,9.326-20.789,20.789-20.789c0.598,0,1.192,0.025,1.781,0.074c4.864-7.119,13.015-11.579,21.922-11.579
	c12.622,0,23.214,8.855,25.889,20.681C83.237,75.536,89.295,82.325,89.295,90.502z M185.134,87.485
	c-3.429-4.094-8.558-6.594-14.11-6.594c-8.033,0-14.88,5.174-17.383,12.365c-4.994,1.649-8.609,6.361-8.609,11.901
	c0,6.908,5.621,12.529,12.529,12.529h27.028c8.33,0,15.106-6.776,15.106-15.105C199.695,94.435,193.212,87.773,185.134,87.485z
	 M216,203.911c0,4.143-3.357,7.5-7.5,7.5h-17.004H71.387H24.503H7.5c-4.142,0-7.5-3.357-7.5-7.5s3.358-7.5,7.5-7.5h13.593
	l42.89-49.187c3.421-3.946,8.4-6.22,13.646-6.22c4.826,0,9.364,1.881,12.778,5.294l9.093,9.093l21.278-27.456
	c3.507-4.411,8.659-6.898,14.192-6.898c6.385,0,12.14,3.236,15.446,8.671l45.064,66.702h13.02
	C212.643,196.411,216,199.769,216,203.911z M40.994,196.411h26.657l22.217-29.438L79.8,156.905c-0.784-0.783-1.697-0.9-2.171-0.9
	c-0.525,0-1.526,0.139-2.326,1.062L40.994,196.411z M161.817,33.479h-8.539c-0.199-0.538-0.423-1.064-0.662-1.582l6.043-6.043
	c2.929-2.93,2.929-7.678,0-10.607c-2.93-2.928-7.678-2.928-10.607,0l-6.043,6.043c-0.518-0.24-1.044-0.464-1.583-0.663v-8.538
	c0-4.143-3.357-7.5-7.5-7.5s-7.5,3.357-7.5,7.5v8.538c-0.539,0.199-1.066,0.423-1.584,0.663l-6.041-6.042
	c-2.929-2.929-7.678-2.93-10.606-0.001c-2.929,2.929-2.93,7.678-0.001,10.606l6.043,6.043c-0.24,0.518-0.463,1.044-0.663,1.583
	h-8.539c-4.142,0-7.5,3.357-7.5,7.5s3.358,7.5,7.5,7.5h8.539c0.199,0.539,0.423,1.065,0.663,1.583l-6.043,6.043
	c-2.929,2.929-2.928,7.678,0.001,10.606c1.465,1.464,3.384,2.196,5.303,2.196s3.839-0.732,5.304-2.197l6.041-6.042
	c0.518,0.24,1.045,0.464,1.584,0.663v8.538c0,4.143,3.357,7.5,7.5,7.5s7.5-3.357,7.5-7.5v-8.538
	c0.539-0.199,1.065-0.423,1.583-0.663l6.043,6.043c1.465,1.464,3.385,2.196,5.304,2.196s3.839-0.732,5.304-2.196
	c2.929-2.93,2.929-7.678,0-10.607l-6.043-6.043c0.24-0.518,0.463-1.044,0.663-1.583h8.539c4.143,0,7.5-3.357,7.5-7.5
	S165.96,33.479,161.817,33.479z"/>
<g>
</g>
<g>
</g>
<g>
</g>
<g>
</g>
<g>
</g>
<g>
</g>
<g>
</g>
<g>
</g>
<g>
</g>
<g>
</g>
<g>
</g>
<g>
</g>
<g>
</g>
<g>
</g>
<g>
</g>
</svg>
