<?xml version="1.0" encoding="iso-8859-1"?>
<!-- Generator: Adobe Illustrator 19.0.0, SVG Export Plug-In . SVG Version: 6.00 Build 0)  -->
<svg version="1.1" id="Layer_1" xmlns="http://www.w3.org/2000/svg" xmlns:xlink="http://www.w3.org/1999/xlink" x="0px" y="0px"
	 viewBox="0 0 490 490" style="enable-background:new 0 0 490 490;" xml:space="preserve">
<g>
	<g>
		<g>
			<rect x="266" y="195.85" width="26" height="15"/>
			<rect x="383" y="334.85" width="16" height="29"/>
			<rect x="383" y="288.85" width="16" height="29"/>
			<rect x="85" y="418.85" width="214" height="16"/>
			<rect x="322" y="418.85" width="28" height="16"/>
			<rect x="292" y="454.85" width="114" height="16"/>
			<path d="M75.424,136.816c32.441,0,58.831-26.393,58.831-58.835c0-32.442-26.39-58.831-58.831-58.831S16.589,45.54,16.589,77.981
				C16.589,110.422,42.983,136.816,75.424,136.816z M75.424,34.461c23.997,0,43.521,19.523,43.521,43.521
				c0,24.001-19.523,43.524-43.521,43.524c-24.001,0-43.524-19.523-43.524-43.524C31.9,53.984,51.423,34.461,75.424,34.461z"/>
			<path d="M469.37,104.55l-27.78-27.78l-27.78,27.78l27.78,27.78L469.37,104.55z M441.59,98.42l6.13,6.13l-6.13,6.13l-6.13-6.13
				L441.59,98.42z"/>
			<path d="M372.327,53.371l-27.78-27.78l-27.78,27.78l27.78,27.78L372.327,53.371z M338.416,53.371l6.13-6.13l6.13,6.13l-6.13,6.13
				L338.416,53.371z"/>
			<path d="M464.105,380.85l-69.179-222H93.112l-69.167,222H0v15h490v-15H464.105z M39.831,380.85l52.761-170H243v-15H97.247
				l7.138-23h274.824l-64.606,208H39.831z M330.635,380.85L383,212.26v61.59h16v-51.598l49.247,158.598H330.635z"/>
		</g>
	</g>
</g>
<g>
</g>
<g>
</g>
<g>
</g>
<g>
</g>
<g>
</g>
<g>
</g>
<g>
</g>
<g>
</g>
<g>
</g>
<g>
</g>
<g>
</g>
<g>
</g>
<g>
</g>
<g>
</g>
<g>
</g>
</svg>
