<?xml version="1.0" encoding="iso-8859-1"?>
<!-- Generator: Adobe Illustrator 19.0.0, SVG Export Plug-In . SVG Version: 6.00 Build 0)  -->
<svg version="1.1" id="Capa_1" xmlns="http://www.w3.org/2000/svg" xmlns:xlink="http://www.w3.org/1999/xlink" x="0px" y="0px"
	 viewBox="0 0 464.652 464.652" style="enable-background:new 0 0 464.652 464.652;" xml:space="preserve">
<g>
	<path d="M62.573,219.34c-12.406,0-22.5,10.093-22.5,22.5v45.43c0,4.142,3.357,7.5,7.5,7.5h30c4.143,0,7.5-3.358,7.5-7.5v-45.43
		C85.073,229.433,74.979,219.34,62.573,219.34z M70.073,279.77h-15v-37.93c0-4.136,3.364-7.5,7.5-7.5s7.5,3.364,7.5,7.5V279.77z"/>
	<path d="M62.573,118.91c-12.406,0-22.5,10.093-22.5,22.5v45.43c0,4.142,3.357,7.5,7.5,7.5h30c4.143,0,7.5-3.358,7.5-7.5v-45.43
		C85.073,129.003,74.979,118.91,62.573,118.91z M70.073,179.34h-15v-37.93c0-4.136,3.364-7.5,7.5-7.5s7.5,3.364,7.5,7.5V179.34z"/>
	<path d="M402.079,219.34c-12.406,0-22.5,10.093-22.5,22.5v45.43c0,4.142,3.357,7.5,7.5,7.5h30c4.143,0,7.5-3.358,7.5-7.5v-45.43
		C424.579,229.433,414.485,219.34,402.079,219.34z M409.579,279.77h-15v-37.93c0-4.136,3.364-7.5,7.5-7.5s7.5,3.364,7.5,7.5V279.77z
		"/>
	<path d="M402.079,118.91c-12.406,0-22.5,10.093-22.5,22.5v45.43c0,4.142,3.357,7.5,7.5,7.5h30c4.143,0,7.5-3.358,7.5-7.5v-45.43
		C424.579,129.003,414.485,118.91,402.079,118.91z M409.579,179.34h-15v-37.93c0-4.136,3.364-7.5,7.5-7.5s7.5,3.364,7.5,7.5V179.34z
		"/>
	<path d="M457.152,18.91c-4.143,0-7.5,3.358-7.5,7.5v12.5h-21.716v-12.5c0-4.142-3.357-7.5-7.5-7.5s-7.5,3.358-7.5,7.5v12.5h-21.716
		v-12.5c0-4.142-3.357-7.5-7.5-7.5s-7.5,3.358-7.5,7.5v12.5h-21.715v-12.5c0-4.142-3.357-7.5-7.5-7.5s-7.5,3.358-7.5,7.5l0,198.691
		h-26.248v-92.5c0-4.142-3.357-7.5-7.5-7.5s-7.5,3.358-7.5,7.5v12.5h-21.716v-12.5c0-4.142-3.357-7.5-7.5-7.5s-7.5,3.358-7.5,7.5
		v12.5h-21.716v-12.5c0-4.142-3.357-7.5-7.5-7.5s-7.5,3.358-7.5,7.5v12.5H203.11v-12.5c0-4.142-3.357-7.5-7.5-7.5
		s-7.5,3.358-7.5,7.5v12.5h-21.716v-12.5c0-4.142-3.357-7.5-7.5-7.5s-7.5,3.358-7.5,7.5v92.5h-26.248V26.41
		c0-4.142-3.357-7.5-7.5-7.5s-7.5,3.358-7.5,7.5v12.5H88.432v-12.5c0-4.142-3.357-7.5-7.5-7.5s-7.5,3.358-7.5,7.5v12.5H51.716v-12.5
		c0-4.142-3.357-7.5-7.5-7.5s-7.5,3.358-7.5,7.5v12.5H15v-12.5c0-4.142-3.357-7.5-7.5-7.5S0,22.268,0,26.41v411.833
		c0,4.142,3.357,7.5,7.5,7.5h449.652c4.143,0,7.5-3.358,7.5-7.5V26.41C464.652,22.268,461.295,18.91,457.152,18.91z M449.652,53.91
		v25h-95.146v-25H449.652z M339.505,240.101l0,190.642h-26.247V240.101H339.505z M196.512,314.557h71.629v116.186h-71.629V314.557z
		 M197.308,299.557c3.458-16.159,17.842-28.314,35.018-28.314s31.561,12.156,35.018,28.314H197.308z M283.141,307.057
		c0-28.019-22.795-50.814-50.814-50.814s-50.814,22.795-50.814,50.814v123.686h-15.117V200.101h131.863v230.642h-15.117V307.057z
		 M298.258,160.101v25H166.395v-25H298.258z M110.146,53.91v25H15v-25H110.146z M15,93.91h95.146v284.333c0,4.142,3.357,7.5,7.5,7.5
		s7.5-3.358,7.5-7.5V240.101h26.248v190.642h-26.248v-22.5c0-4.142-3.357-7.5-7.5-7.5s-7.5,3.358-7.5,7.5v22.5H15V93.91z
		 M354.505,430.743l0-198.132c0-0.019,0-138.701,0-138.701h95.147v336.833H354.505z"/>
</g>
<g>
</g>
<g>
</g>
<g>
</g>
<g>
</g>
<g>
</g>
<g>
</g>
<g>
</g>
<g>
</g>
<g>
</g>
<g>
</g>
<g>
</g>
<g>
</g>
<g>
</g>
<g>
</g>
<g>
</g>
</svg>
