<?xml version="1.0" encoding="iso-8859-1"?>
<!-- Generator: Adobe Illustrator 18.0.0, SVG Export Plug-In . SVG Version: 6.00 Build 0)  -->
<!DOCTYPE svg PUBLIC "-//W3C//DTD SVG 1.1//EN" "http://www.w3.org/Graphics/SVG/1.1/DTD/svg11.dtd">
<svg version="1.1" id="Capa_1" xmlns="http://www.w3.org/2000/svg" xmlns:xlink="http://www.w3.org/1999/xlink" x="0px" y="0px"
	 viewBox="0 0 462.513 462.513" style="enable-background:new 0 0 462.513 462.513;" xml:space="preserve">
<path id="XMLID_1026_" d="M385.894,204.222h-0.246c-26.398,0-47.875,21.477-47.875,47.876v65.98c0,4.212-3.427,7.638-7.639,7.638
	H301.03V79.874C301.03,35.831,265.199,0,221.156,0c-44.042,0-79.873,35.831-79.873,79.874v86.585h-25.04
	c-2.592,0-4.701-2.109-4.701-4.702v-50.728c0-23.03-18.736-41.766-41.767-41.766h-0.001c-22.624,0-41.03,18.407-41.03,41.032v73.086
	c0,36.324,29.553,65.875,65.879,65.875h46.66v198.256c0,8.284,6.716,15,15,15H286.03c8.284,0,15-6.716,15-15v-25.8h49.871
	c45.693,0,82.868-37.171,82.868-82.86v-86.755C433.769,225.699,412.292,204.222,385.894,204.222z M141.283,219.256h-46.66
	c-19.784,0-35.879-16.093-35.879-35.875v-73.086c0-6.083,4.948-11.032,11.031-11.032c6.488,0,11.767,5.278,11.767,11.766v50.728
	c0,19.135,15.566,34.702,34.701,34.702h25.04V219.256z M271.03,432.513h-99.747V79.874c0-27.5,22.373-49.874,49.873-49.874
	c27.501,0,49.874,22.373,49.874,49.874V432.513z M403.769,338.852c0,29.147-23.717,52.86-52.868,52.86H301.03v-35.997h29.104
	c20.754,0,37.639-16.884,37.639-37.638v-65.98c0-9.857,8.019-17.876,17.875-17.876h0.246c9.856,0,17.875,8.019,17.875,17.875
	V338.852z"/>
<g>
</g>
<g>
</g>
<g>
</g>
<g>
</g>
<g>
</g>
<g>
</g>
<g>
</g>
<g>
</g>
<g>
</g>
<g>
</g>
<g>
</g>
<g>
</g>
<g>
</g>
<g>
</g>
<g>
</g>
</svg>
