<?xml version="1.0" encoding="iso-8859-1"?>
<!-- Generator: Adobe Illustrator 19.0.0, SVG Export Plug-In . SVG Version: 6.00 Build 0)  -->
<svg version="1.1" id="Capa_1" xmlns="http://www.w3.org/2000/svg" xmlns:xlink="http://www.w3.org/1999/xlink" x="0px" y="0px"
	 viewBox="0 0 488 488" style="enable-background:new 0 0 488 488;" xml:space="preserve">
<path d="M480,400v-96c0-4.418-3.582-8-8-8s-8,3.582-8,8v8h-8v-8c0-4.418-3.582-8-8-8s-8,3.582-8,8v8h-8v-56.069
	c3.945-0.493,7-3.852,7-7.931s-3.055-7.438-7-7.931V216c4.418,0,8-3.582,8-8v-32c0-4.418-3.582-8-8-8H328c-4.411,0-8-3.589-8-8v-16
	c4.418,0,8-3.582,8-8s-3.582-8-8-8h-8v-16c0-4.418-3.582-8-8-8h-52V80c0-4.418-3.582-8-8-8c-4.418,0-8,3.582-8,8v24h-52
	c-4.418,0-8,3.582-8,8v16h-8c-4.418,0-8,3.582-8,8s3.582,8,8,8v16c0,4.411-3.589,8-8,8H56c-4.418,0-8,3.582-8,8v32
	c0,4.418,3.582,8,8,8v24c-4.418,0-8,3.582-8,8s3.582,8,8,8v56h-8v-8c0-4.418-3.582-8-8-8s-8,3.582-8,8v8h-8v-8c0-4.418-3.582-8-8-8
	s-8,3.582-8,8v96c-4.418,0-8,3.582-8,8s3.582,8,8,8h472c4.418,0,8-3.582,8-8S484.418,400,480,400z M192,120h104v8H192V120z M64,184
	h96c13.234,0,24-10.767,24-24v-16h120v16c0,13.233,10.767,24,24,24h96v16H280v-24c0-4.418-3.582-8-8-8h-56c-4.418,0-8,3.582-8,8v24
	H64V184z M224,200v-16h40v16H224z M72,216h8c0,4.418,3.582,8,8,8s8-3.582,8-8h8c0,4.418,3.582,8,8,8s8-3.582,8-8h8
	c0,4.418,3.582,8,8,8s8-3.582,8-8h8c0,4.418,3.582,8,8,8s8-3.582,8-8h8c0,4.418,3.582,8,8,8s8-3.582,8-8h8c0,4.418,3.582,8,8,8
	s8-3.582,8-8h8c0,4.418,3.582,8,8,8s8-3.582,8-8h8v1c0,4.418,3.582,8,8,8s8-3.582,8-8v-1h8v1c0,4.418,3.582,8,8,8s8-3.582,8-8v-1h8
	v1c0,4.418,3.582,8,8,8s8-3.582,8-8v-1h8v1c0,4.418,3.582,8,8,8s8-3.582,8-8v-1h8v1c0,4.418,3.582,8,8,8s8-3.582,8-8v-1h8v1
	c0,4.418,3.582,8,8,8s8-3.582,8-8v-1h8v1c0,4.418,3.582,8,8,8s8-3.582,8-8v-1h8v24H72V216z M72,256h344v56h-8v-7
	c0-4.418-3.582-8-8-8s-8,3.582-8,8v7h-8v-7c0-4.418-3.582-8-8-8s-8,3.582-8,8v7h-8v-7c0-4.418-3.582-8-8-8s-8,3.582-8,8v7h-8v-7
	c0-4.418-3.582-8-8-8s-8,3.582-8,8v7h-8v-32c0-4.418-3.582-8-8-8H184c-4.418,0-8,3.582-8,8v32h-8v-8c0-4.418-3.582-8-8-8
	s-8,3.582-8,8v8h-8v-8c0-4.418-3.582-8-8-8s-8,3.582-8,8v8h-8v-8c0-4.418-3.582-8-8-8s-8,3.582-8,8v8h-8v-8c0-4.418-3.582-8-8-8
	s-8,3.582-8,8v8h-8V256z M288,312v-7c0-4.418-3.582-8-8-8s-8,3.582-8,8v7h-8v-7c0-4.418-3.582-8-8-8s-8,3.582-8,8v7h-8v-8
	c0-4.418-3.582-8-8-8s-8,3.582-8,8v8h-8v-8c0-4.418-3.582-8-8-8s-8,3.582-8,8v8h-8v-24h104v24H288z M464,328v16H24v-16H464z M24,360
	h440v40H272v-24c0-4.418-3.582-8-8-8h-40c-4.418,0-8,3.582-8,8v24H24V360z M256,400h-24v-16h24V400z"/>
<g>
</g>
<g>
</g>
<g>
</g>
<g>
</g>
<g>
</g>
<g>
</g>
<g>
</g>
<g>
</g>
<g>
</g>
<g>
</g>
<g>
</g>
<g>
</g>
<g>
</g>
<g>
</g>
<g>
</g>
</svg>
