<?xml version='1.0' encoding='iso-8859-1'?>
<!DOCTYPE svg PUBLIC '-//W3C//DTD SVG 1.1//EN' 'http://www.w3.org/Graphics/SVG/1.1/DTD/svg11.dtd'>
<svg version="1.1" xmlns="http://www.w3.org/2000/svg" viewBox="0 0 469.518 469.518" xmlns:xlink="http://www.w3.org/1999/xlink" enable-background="new 0 0 469.518 469.518">
  <path d="m459.518,328.842h-6.825c-2.443-54.519-24.827-105.427-63.667-144.267-41.206-41.206-95.993-63.899-154.267-63.899-58.274,0-113.061,22.693-154.267,63.899-38.84,38.84-61.223,89.747-63.666,144.267h-6.826c-5.523,0-10,4.477-10,10s4.477,10 10,10h449.518c5.522,0 10-4.477 10-10s-4.477-10-10-10zm-332.936-78.283c17.82,2.59 35.962,4.527 54.386,5.801-1.081,11.105-1.941,22.609-2.569,34.41-20.278-1.531-40.269-3.876-59.779-7.024 2.028-11.444 4.693-22.541 7.962-33.187zm-27.646,29.713c-16.974-3.264-33.517-7.139-49.491-11.616 4.002-10.531 8.876-20.635 14.535-30.224 13.979,3.42 28.216,6.401 42.686,8.938-3.142,10.609-5.726,21.607-7.73,32.902zm251.962,3.473c-19.509,3.148-39.5,5.493-59.778,7.025-0.628-11.801-1.488-23.305-2.569-34.41 18.424-1.274 36.566-3.211 54.385-5.801 3.269,10.646 5.933,21.743 7.962,33.186zm11.954-36.375c14.47-2.538 28.707-5.518 42.686-8.938 5.659,9.588 10.532,19.689 14.534,30.219-15.972,4.479-32.515,8.355-49.489,11.619-2.005-11.294-4.589-22.291-7.731-32.9zm-200.09-67.31c12.762-15.651 27.11-26.905 42.319-33.274-4.433,9.318-8.439,21.164-12.049,35.576-10.162-0.56-20.255-1.332-30.27-2.302zm71.997,23.45c8.668,0 17.304-0.146 25.901-0.43 2.169,10.707 4.058,22.255 5.647,34.481-10.435,0.428-20.95,0.656-31.548,0.656-10.598,0-21.113-0.228-31.548-0.656 1.589-12.226 3.478-23.773 5.647-34.481 8.597,0.284 17.233,0.43 25.901,0.43zm41.727-21.148c-3.61-14.412-7.616-26.257-12.05-35.576 15.209,6.369 29.557,17.623 42.319,33.274-10.014,0.97-20.107,1.742-30.269,2.302zm-41.727,75.854c11.36,0 22.633-0.247 33.814-0.726 1.095,11.116 1.962,22.661 2.589,34.528-12.072,0.585-24.217,0.896-36.403,0.896-12.185,0-24.33-0.31-36.402-0.896 0.628-11.867 1.495-23.412 2.589-34.528 11.18,0.479 22.453,0.726 33.813,0.726zm51.563-21.751c-1.542-12.102-3.366-23.595-5.458-34.325 13.155-0.782 26.199-1.9 39.106-3.351 6.158,10.04 11.58,20.939 16.211,32.542-16.348,2.28-32.982,3.987-49.859,5.134zm43.535-59.019c-5.416-7.672-11.162-14.615-17.19-20.801 11.835,5.08 23.079,11.28 33.599,18.467-5.44,0.841-10.91,1.618-16.409,2.334zm-73.818,5.757c-7.069,0.197-14.162,0.307-21.281,0.307s-14.212-0.111-21.28-0.307c9.356-34.975 19.012-42.526 21.28-42.526s11.925,7.551 21.281,42.526zm-116.378-5.757c-5.499-0.715-10.969-1.493-16.409-2.334 10.52-7.187 21.764-13.388 33.599-18.468-6.028,6.187-11.774,13.129-17.19,20.802zm48.994,24.694c-2.092,10.73-3.915,22.224-5.458,34.325-16.877-1.147-33.512-2.854-49.861-5.134 4.631-11.603 10.053-22.501 16.211-32.542 12.908,1.452 25.953,2.569 39.108,3.351zm-11.09,108.642c-0.181,5.967-0.307,11.99-0.371,18.06h-63.182c0.26-8.544 0.855-16.984 1.769-25.287 20.173,3.244 40.836,5.663 61.784,7.227zm19.97,1.227c12.347,0.597 24.768,0.904 37.224,0.904 12.457,0 24.877-0.308 37.225-0.904 0.164,5.562 0.28,11.175 0.341,16.833h-75.131c0.061-5.658 0.177-11.271 0.341-16.833zm94.419-1.227c20.949-1.564 41.611-3.983 61.785-7.228 0.914,8.303 1.509,16.744 1.769,25.288h-63.182c-0.066-6.07-0.191-12.093-0.372-18.06zm81.509-10.695c18.104-3.456 35.743-7.591 52.759-12.386 3.536,13.226 5.745,26.988 6.452,41.141h-57.164c-0.279-9.715-0.968-19.314-2.047-28.755zm20.284-79.405c-12.252,2.847-24.697,5.365-37.335,7.522-4.288-11.33-9.267-22.09-14.888-32.169 8.729-1.249 17.385-2.656 25.96-4.216 9.664,8.733 18.467,18.401 26.263,28.863zm-291.713-28.863c8.575,1.56 17.231,2.967 25.96,4.216-5.62,10.078-10.6,20.838-14.888,32.169-12.638-2.156-25.083-4.675-37.335-7.522 7.796-10.462 16.599-20.13 26.263-28.863zm-58.739,95.888c17.018,4.794 34.656,8.927 52.76,12.382-1.079,9.44-1.768,19.039-2.047,28.753h-57.163c0.707-14.151 2.915-27.911 6.45-41.135z"/>
</svg>
