<?xml version="1.0" encoding="iso-8859-1"?>
<!-- Generator: Adobe Illustrator 17.1.0, SVG Export Plug-In . SVG Version: 6.00 Build 0)  -->
<!DOCTYPE svg PUBLIC "-//W3C//DTD SVG 1.1//EN" "http://www.w3.org/Graphics/SVG/1.1/DTD/svg11.dtd">
<svg version="1.1" id="Capa_1" xmlns="http://www.w3.org/2000/svg" xmlns:xlink="http://www.w3.org/1999/xlink" x="0px" y="0px"
	 viewBox="0 0 383.609 383.609" style="enable-background:new 0 0 383.609 383.609;" xml:space="preserve">
<path id="XMLID_746_" d="M46.147,310.083c-0.743,4.393-4.552,7.501-8.863,7.501c-0.499,0-1.003-0.042-1.511-0.127
	c-8.769-1.482-17.429-3.542-25.742-6.121c-4.748-1.473-7.402-6.516-5.929-11.263c1.473-4.747,6.514-7.401,11.263-5.929
	c7.55,2.343,15.426,4.214,23.408,5.564C43.674,300.538,46.975,305.183,46.147,310.083z M32.076,273.482
	c0.508,0.086,1.013,0.127,1.511,0.127c4.312,0,8.121-3.108,8.863-7.501c0.829-4.901-2.473-9.546-7.374-10.375
	c-7.985-1.35-15.86-3.222-23.407-5.564c-4.743-1.471-9.79,1.181-11.263,5.928c-1.473,4.747,1.181,9.79,5.928,11.263
	C14.644,269.939,23.304,271.999,32.076,273.482z M228.698,182.393c33.36-14.63,55.79-41.523,61.537-73.784
	c3.745-21.023-0.059-42.418-10.034-59.603c20.19,2.877,37.423,11.731,51.396,26.444c25.189,26.524,37.308,69.684,33.248,118.414
	c-0.413,4.953,3.268,9.303,8.222,9.716c0.254,0.021,0.506,0.032,0.757,0.032c4.632,0,8.567-3.554,8.958-8.253
	c4.486-53.839-9.414-102.062-38.133-132.303c-21.511-22.65-50.485-34.079-83.819-33.017c-3.619,0.114-6.816,2.385-8.116,5.765
	c-1.3,3.379-0.448,7.208,2.161,9.718c14.912,14.342,21.67,37.306,17.64,59.931c-2.748,15.423-13.033,43.786-51.045,60.457
	c-4.552,1.997-6.624,7.305-4.627,11.857C218.837,182.317,224.144,184.389,228.698,182.393z M6.335,225.726
	c8.303,2.577,16.964,4.636,25.742,6.121c0.508,0.086,1.013,0.127,1.511,0.127c4.311,0,8.121-3.108,8.863-7.501
	c0.829-4.901-2.473-9.546-7.374-10.375c-7.991-1.351-15.866-3.223-23.407-5.564c-4.744-1.471-9.79,1.181-11.264,5.928
	C-1.066,219.209,1.587,224.252,6.335,225.726z M179.993,64.642c11.696,37.686,18.137,87.623,18.137,140.611
	c0,71.213-11.549,135.654-30.893,172.379c-1.557,2.956-4.623,4.806-7.963,4.806H97.9c-3.34,0-6.406-1.85-7.963-4.805
	c-19.346-36.725-30.895-101.166-30.895-172.379c0-52.988,6.441-102.924,18.138-140.611c12.887-41.522,30.664-63.47,51.407-63.47
	S167.106,23.12,179.993,64.642z M180.13,205.253c0-115.29-30.021-186.081-51.543-186.081c-21.523,0-51.545,70.792-51.545,186.081
	c0,64.324,10.058,124.491,26.427,159.185h16.118V178.358c0-4.971,4.029-9,9-9s9,4.029,9,9v186.079h16.118
	C170.072,329.743,180.13,269.577,180.13,205.253z M375.279,240.326c-9.349-0.711-20.181-15.236-26.768-29.315
	c-1.544-3.3-4.927-5.348-8.566-5.176c-3.64,0.167-6.819,2.514-8.054,5.942c-5.833,16.204-16.83,26.386-28.7,26.573
	c-11.785,0.186-22.396-9.597-29.222-26.837c-1.42-3.588-4.962-5.863-8.826-5.675c-3.854,0.196-7.155,2.829-8.203,6.543
	c-4.822,17.078-21.073,25.874-33.523,28.217c-4.885,0.919-8.1,5.625-7.18,10.509c0.813,4.322,4.591,7.337,8.834,7.337
	c0.552,0,1.112-0.051,1.675-0.157c16.111-3.032,30.071-11.807,39.002-23.839c9.774,14.328,22.929,22.121,37.726,21.9
	c14.583-0.229,27.961-8.497,37.315-22.412c7.541,11.281,18.814,23.25,33.124,24.338c4.952,0.379,9.28-3.335,9.657-8.292
	C383.947,245.026,380.235,240.703,375.279,240.326z M375.279,304.267c-9.346-0.711-20.179-15.237-26.769-29.316
	c-1.545-3.3-4.919-5.357-8.566-5.175c-3.64,0.168-6.819,2.514-8.053,5.942c-5.833,16.204-16.83,26.386-28.7,26.573
	c-11.785,0.207-22.396-9.597-29.222-26.837c-1.42-3.588-4.962-5.867-8.826-5.675c-3.854,0.196-7.155,2.829-8.203,6.543
	c-4.822,17.077-21.073,25.873-33.523,28.216c-4.885,0.919-8.1,5.625-7.18,10.509c0.813,4.322,4.591,7.337,8.834,7.337
	c0.552,0,1.112-0.051,1.675-0.157c16.111-3.032,30.071-11.807,39.002-23.839c9.633,14.121,22.58,21.906,37.086,21.906
	c0.213,0,0.426-0.002,0.64-0.005c14.583-0.229,27.962-8.499,37.317-22.414c7.542,11.281,18.817,23.251,33.122,24.34
	c4.958,0.366,9.28-3.335,9.657-8.291C383.947,308.968,380.235,304.644,375.279,304.267z"/>
<g>
</g>
<g>
</g>
<g>
</g>
<g>
</g>
<g>
</g>
<g>
</g>
<g>
</g>
<g>
</g>
<g>
</g>
<g>
</g>
<g>
</g>
<g>
</g>
<g>
</g>
<g>
</g>
<g>
</g>
</svg>
